<svg xmlns="http://www.w3.org/2000/svg" width="1000" height="1000" viewBox="0 0 1000 1000" role="img">
  <defs>
    <linearGradient id="bg" x1="0" y1="0" x2="1" y2="1">
      <stop offset="0%" stop-color="#f5f3ff"/>
      <stop offset="55%" stop-color="#ede9fe"/>
      <stop offset="100%" stop-color="#e4e4e7"/>
    </linearGradient>
    <linearGradient id="badge" x1="0" y1="0" x2="1" y2="0">
      <stop offset="0%" stop-color="#5b21b6"/>
      <stop offset="100%" stop-color="#7c3aed"/>
    </linearGradient>
  </defs>
  <rect width="1000" height="1000" fill="url(#bg)"/>
  <circle cx="820" cy="140" r="180" fill="#7c3aed" fill-opacity="0.08"/>
  <circle cx="120" cy="860" r="220" fill="#5b21b6" fill-opacity="0.07"/>
  <rect x="80" y="80" width="840" height="840" rx="48" fill="#ffffff" fill-opacity="0.72" stroke="#e4e4e7"/>
  <rect x="120" y="140" width="220" height="48" rx="24" fill="url(#badge)"/>
  <text x="230" y="171" text-anchor="middle" fill="#fff" font-family="system-ui,sans-serif" font-size="20" font-weight="700">BAT PREP SERVICE</text>
  <text x="500" y="280" text-anchor="middle" fill="#18181b" font-family="system-ui,sans-serif" font-size="64" font-weight="800">Bat Services</text>
  <text x="500" y="340" text-anchor="middle" fill="#52525b" font-family="system-ui,sans-serif" font-size="28">Prep & restoration</text>
  <line x1="300" y1="380" x2="700" y2="380" stroke="#c4b5fd" stroke-width="3"/>

  <g transform="translate(120,420)">
    <circle cx="0" cy="0" r="48" fill="#5b21b6" fill-opacity="0.15"/>
    <circle cx="0" cy="0" r="48" stroke="#5b21b6" stroke-width="2" fill="none"/>
    <g fill="none" stroke="#5b21b6" stroke-width="6" stroke-linecap="round">
  <path d="M-18 10 L18 -18"/><path d="M-8 18 L22 -8"/><circle cx="-14" cy="16" r="4" fill="#5b21b6" stroke="none"/>
</g>
    <text x="0" y="78" text-anchor="middle" fill="#3f3f46" font-family="system-ui,sans-serif" font-size="18" font-weight="600">Prep</text>
  </g>
  <g transform="translate(320,420)">
    <circle cx="0" cy="0" r="48" fill="#5b21b6" fill-opacity="0.15"/>
    <circle cx="0" cy="0" r="48" stroke="#5b21b6" stroke-width="2" fill="none"/>
    <g fill="none" stroke="#5b21b6" stroke-width="5" stroke-linecap="round">
  <path d="M-16 -10 H16 V18 H-16 Z" fill="#5b21b6" fill-opacity="0.12"/>
  <path d="M-10 18 V8 H10 V18"/>
</g>
    <text x="0" y="78" text-anchor="middle" fill="#3f3f46" font-family="system-ui,sans-serif" font-size="18" font-weight="600">Protect</text>
  </g>
  <g transform="translate(520,420)">
    <circle cx="0" cy="0" r="48" fill="#5b21b6" fill-opacity="0.15"/>
    <circle cx="0" cy="0" r="48" stroke="#5b21b6" stroke-width="2" fill="none"/>
    <g fill="none" stroke="#5b21b6" stroke-width="5" stroke-linecap="round" stroke-linejoin="round">
  <path d="M-8 -20 L8 -20 L14 0 L0 24 L-14 0 Z" fill="#5b21b6" fill-opacity="0.12"/>
  <path d="M-4 0 H4 M0 -8 V8"/>
</g>
    <text x="0" y="78" text-anchor="middle" fill="#3f3f46" font-family="system-ui,sans-serif" font-size="18" font-weight="600">Restore</text>
  </g>
  <text x="500" y="880" text-anchor="middle" fill="#71717a" font-family="system-ui,sans-serif" font-size="22">Service · Not a bat product</text>
</svg>